<?xml version="1.0" standalone="no"?>
<!DOCTYPE svg PUBLIC "-//W3C//DTD SVG 20010904//EN"
 "http://www.w3.org/TR/2001/REC-SVG-20010904/DTD/svg10.dtd">
<svg version="1.0" xmlns="http://www.w3.org/2000/svg"
 width="1280.000000pt" height="1276.000000pt" viewBox="0 0 1280.000000 1276.000000"
 preserveAspectRatio="xMidYMid meet">
<metadata>
Created by potrace 1.15, written by Peter Selinger 2001-2017
</metadata>
<g transform="translate(0.000000,1276.000000) scale(0.100000,-0.100000)"
fill="#000000" stroke="none">
<path d="M6095 12754 c-655 -42 -1166 -139 -1744 -331 -444 -147 -985 -405
-1366 -651 -91 -58 -93 -58 95 -37 191 22 650 30 840 16 641 -48 1163 -190
1735 -471 249 -123 479 -261 885 -532 191 -127 360 -232 430 -266 108 -53 119
-57 190 -57 73 0 77 1 154 50 44 28 127 95 184 149 187 180 303 388 358 646
25 118 26 372 1 490 -64 304 -227 611 -469 883 l-43 48 -115 15 c-247 32 -448
45 -755 48 -176 2 -347 2 -380 0z"/>
<path d="M7630 12635 c0 -3 22 -38 48 -78 208 -310 348 -642 393 -932 18 -113
15 -322 -5 -434 -58 -326 -246 -648 -586 -1003 -61 -65 -110 -121 -108 -126 2
-6 858 -808 944 -884 21 -18 23 -17 300 204 1091 868 1493 1147 2067 1435 103
52 187 100 187 107 0 13 -128 140 -245 242 -802 701 -1769 1198 -2775 1427
-204 47 -220 50 -220 42z"/>
<path d="M3110 11619 c-159 -15 -255 -30 -365 -56 -107 -25 -113 -28 -210
-102 -1320 -999 -2211 -2492 -2460 -4120 -29 -194 -38 -283 -25 -256 5 11 24
59 43 106 207 523 788 945 1767 1283 536 186 1045 312 2333 581 1168 243 1541
338 1917 487 315 125 532 269 623 415 32 51 67 152 67 194 0 121 -278 400
-595 597 -605 374 -1369 670 -2073 801 -376 71 -751 96 -1022 70z"/>
<path d="M10965 10688 c-593 -380 -1169 -786 -1710 -1207 -391 -304 -678 -547
-670 -568 10 -29 820 -1042 833 -1042 7 -1 67 27 135 60 506 255 998 389 1422
389 314 0 554 -56 821 -190 332 -167 596 -416 863 -815 61 -92 91 -130 87
-110 -3 17 -13 77 -21 135 -69 473 -216 996 -415 1480 -71 174 -272 578 -370
745 -142 242 -313 496 -479 710 -152 196 -387 465 -405 465 -6 -1 -47 -24 -91
-52z"/>
<path d="M7155 9859 c-14 -22 -215 -176 -320 -244 -399 -261 -908 -465 -1610
-645 -315 -81 -585 -140 -1306 -285 -1046 -211 -1440 -305 -1894 -452 -972
-315 -1594 -752 -1947 -1368 -61 -106 -63 -112 -70 -200 -10 -141 -9 -434 2
-636 61 -1088 378 -2104 947 -3027 183 -297 536 -769 565 -756 7 3 101 114
208 247 1838 2277 3837 4329 6063 6227 152 129 276 240 277 245 0 7 -897 903
-907 905 -1 0 -5 -5 -8 -11z"/>
<path d="M8310 8658 c-1157 -867 -2088 -1683 -3235 -2839 -856 -863 -1597
-1672 -2566 -2804 -233 -273 -348 -409 -731 -865 -48 -57 -88 -107 -88 -111 0
-14 345 -354 468 -461 391 -343 765 -604 1197 -838 348 -189 723 -350 1060
-457 61 -19 130 -41 155 -50 206 -68 638 -161 940 -202 265 -36 247 -36 331 2
340 155 658 463 897 868 52 88 152 282 197 384 106 237 248 646 320 920 8 28
26 95 40 150 45 165 146 596 175 745 5 25 32 155 60 290 28 135 82 403 121
595 223 1114 346 1598 546 2150 249 685 589 1206 976 1495 25 19 45 38 44 42
-6 18 -833 1028 -842 1027 -5 0 -35 -19 -65 -41z"/>
<path d="M10580 8093 c-19 -2 -83 -13 -142 -23 -283 -53 -506 -170 -647 -340
-61 -73 -65 -106 -25 -208 44 -111 82 -175 373 -632 216 -338 352 -562 476
-780 700 -1233 956 -2343 779 -3380 -25 -145 -80 -377 -108 -457 -8 -24 -12
-43 -8 -42 9 0 179 214 274 344 668 913 1073 1937 1203 3040 40 347 55 771 36
1069 l-12 189 -41 81 c-308 614 -942 1039 -1688 1132 -102 13 -377 17 -470 7z"/>
<path d="M9255 7311 c-362 -131 -648 -562 -880 -1326 -124 -410 -216 -798
-415 -1760 -243 -1174 -342 -1596 -491 -2095 -214 -719 -467 -1273 -756 -1658
-102 -136 -264 -308 -378 -400 l-80 -65 305 6 c954 18 1859 245 2725 682 588
297 1096 660 1587 1134 89 85 103 104 149 199 147 301 213 635 213 1077 0 396
-46 751 -155 1190 -275 1104 -911 2361 -1467 2896 -108 105 -111 107 -180 123
-89 20 -115 20 -177 -3z"/>
</g>
</svg>
