<svg xmlns="http://www.w3.org/2000/svg" version="1.1" xmlns:xlink="http://www.w3.org/1999/xlink" xmlns:svgjs="http://svgjs.dev/svgjs" width="1000" height="623" viewBox="0 0 1000 623"><g transform="matrix(1,0,0,1,-0.6060606060606233,0.25222672064785456)"><svg viewBox="0 0 396 247" data-background-color="#ffffff" preserveAspectRatio="xMidYMid meet" height="623" width="1000" xmlns="http://www.w3.org/2000/svg" xmlns:xlink="http://www.w3.org/1999/xlink"><g id="tight-bounds" transform="matrix(1,0,0,1,0.2400000000000091,-0.09999999999999432)"><svg viewBox="0 0 395.52 247.2" height="247.2" width="395.52"><g><svg></svg></g><g><svg viewBox="0 0 395.52 247.2" height="247.2" width="395.52"><g transform="matrix(1,0,0,1,75.54432,64.48947210117312)"><svg viewBox="0 0 244.43135999999998 118.22105579765375" height="118.22105579765375" width="244.43135999999998"><g><svg viewBox="0 0 244.43135999999998 118.22105579765375" height="118.22105579765375" width="244.43135999999998"><g><svg viewBox="0 0 244.43135999999998 118.22105579765375" height="118.22105579765375" width="244.43135999999998"><g><svg viewBox="0 0 244.43135999999998 118.22105579765375" height="118.22105579765375" width="244.43135999999998"><g id="textblocktransform"><svg viewBox="0 0 244.43135999999998 118.22105579765375" height="118.22105579765375" width="244.43135999999998" id="textblock"><g><svg viewBox="0 0 244.43135999999998 67.40379927272727" height="67.40379927272727" width="244.43135999999998"><g transform="matrix(1,0,0,1,0,0)"><svg width="244.43135999999998" viewBox="3.9000000953674316 -35 164.99000549316406 45.5" height="67.40379927272727" data-palette-color="#001f3f"><path d="M22.8 0L18.55-12.4Q17.65-12.25 16.55-12.25L16.55-12.25 6.7-12.25 6.7 0 3.9 0 3.9-35 16.2-35Q20.95-35 23.28-32.1 25.6-29.2 25.6-24.3L25.6-24.3Q25.6-20.55 24.78-17.65 23.95-14.75 21.2-13.25L21.2-13.25 25.65 0 22.8 0ZM16.6-15Q19.4-15 20.78-16.5 22.15-18 22.48-19.9 22.8-21.8 22.8-24.15L22.8-24.15Q22.8-28.25 21.1-30.3 19.4-32.35 16.4-32.35L16.4-32.35 6.7-32.35 6.7-15 16.6-15ZM50.75-9.2Q50.75-5 48.45-2.25 46.15 0.5 41.5 0.5L41.5 0.5Q36.85 0.5 34.47-2.27 32.1-5.05 32.1-9.2L32.1-9.2 32.1-15.8Q32.1-20.55 34.52-23.08 36.95-25.6 41.5-25.6L41.5-25.6Q45.85-25.6 48.3-22.98 50.75-20.35 50.75-15.8L50.75-15.8 50.75-9.2ZM47.95-15.8Q47.95-19.55 46.22-21.3 44.5-23.05 41.5-23.05L41.5-23.05Q38.4-23.05 36.65-21.3 34.9-19.55 34.9-15.8L34.9-15.8 34.9-8.7Q34.9-5.7 36.67-3.85 38.45-2 41.5-2L41.5-2Q44.6-2 46.27-3.83 47.95-5.65 47.95-8.7L47.95-8.7 47.95-15.8ZM65.6 8.35Q68.95 7.1 68.95 3.15L68.95 3.15 68.95-2.45Q68-0.85 66.1-0.13 64.2 0.6 62 0.6L62 0.6Q57.6 0.6 55.22-1.78 52.85-4.15 52.85-8.8L52.85-8.8 52.85-25.05 55.55-25.05 55.55-8.3Q55.55-5.1 57.3-3.53 59.05-1.95 62-1.95L62-1.95Q65.1-1.95 67-3.5 68.9-5.05 68.9-8.3L68.9-8.3 68.9-18.15Q68.9-20.55 69.05-21.73 69.2-22.9 69.97-23.93 70.75-24.95 72.55-25.5L72.55-25.5 73.3-23.6Q71.6-22.85 71.6-20.1L71.6-20.1 71.6 3.05Q71.6 6.1 70.4 7.85 69.2 9.6 66.35 10.5L66.35 10.5 65.6 8.35ZM92.79 0L92.79-35 95.59-35 95.59-2.5 110.84-2.5 110.84 0 92.79 0ZM131.99 0Q126.59 0.55 124.19 0.55L124.19 0.55Q118.94 0.55 115.84-1.4 112.74-3.35 112.74-8.45L112.74-8.45 112.74-12.6Q112.74-17.55 116.19-19.25L116.19-19.25Q117.84-20.1 120.39-20.1L120.39-20.1Q122.74-20.1 125.14-19.33 127.54-18.55 129.19-17.3L129.19-17.3Q129.19-20.05 127.59-21.68 125.99-23.3 121.44-23.3L121.44-23.3 121.59-25.45Q126.39-25.45 128.66-23.93 130.94-22.4 131.46-20.3 131.99-18.2 131.99-14.9L131.99-14.9 131.99 0ZM129.19-15.15Q127.14-16.1 124.81-16.8 122.49-17.5 120.54-17.5L120.54-17.5Q115.49-17.5 115.49-12.45L115.49-12.45 115.49-8.1Q115.49-4.85 117.74-3.38 119.99-1.9 124.14-1.9L124.14-1.9Q126.29-1.9 129.19-2.3L129.19-2.3 129.19-15.15ZM166.14 0L166.14-17.15Q166.14-20.15 164.56-21.55 162.99-22.95 160.49-22.95L160.49-22.95Q158.54-22.95 156.14-22.1L156.14-22.1 154.29-21.2Q155.14-19.5 155.14-17.3L155.14-17.3 155.14 0 152.39 0 152.39-17.15Q152.39-20.2 150.81-21.58 149.24-22.95 146.69-22.95L146.69-22.95Q145.14-22.95 143.49-22.48 141.84-22 140.49-21.25L140.49-21.25 140.49 0 137.69 0 137.69-25.05 140.49-25.05 140.24-23.45Q143.54-25.4 146.99-25.4L146.99-25.4Q148.79-25.4 150.36-24.8 151.94-24.2 153.04-23.05L153.04-23.05Q153.74-23.45 155.14-24.15L155.14-24.15Q158.09-25.5 160.84-25.5L160.84-25.5Q164.39-25.5 166.64-23.33 168.89-21.15 168.89-17.3L168.89-17.3 168.89 0 166.14 0Z" opacity="1" transform="matrix(1,0,0,1,0,0)" fill="#001f3f" class="wordmark-text-0" data-fill-palette-color="primary" id="text-0"></path></svg></g></svg></g><g transform="matrix(1,0,0,1,0,83.31621858983563)"><svg viewBox="0 0 244.43135999999998 34.90483720781811" height="34.90483720781811" width="244.43135999999998"><g transform="matrix(1,0,0,1,0,0)"><svg width="244.43135999999998" viewBox="3.6500000953674316 -35.349998474121094 250.6800079345703 35.79999923706055" height="34.90483720781811" data-palette-color="#aaaaaa"><path d="M29.1-33.7L29.1 0 23.95 0 23.95-14.75 8.8-14.75 8.8 0 3.65 0 3.65-33.7 8.8-33.7 8.8-19.2 23.95-19.2 23.95-33.7 29.1-33.7ZM55.15-5.75L55.15-1.35Q52.35 0.25 47.75 0.25L47.75 0.25Q41.85 0.25 38.35-3.3 34.85-6.85 34.85-12.6L34.85-12.6Q34.85-18.7 38.05-22.18 41.25-25.65 46.2-25.65L46.2-25.65Q51.05-25.65 53.9-22.63 56.75-19.6 56.75-13.9L56.75-13.9Q56.75-12.35 56.45-10.65L56.45-10.65 39.8-10.65Q40.3-7.35 42.6-5.6 44.9-3.85 48.4-3.85L48.4-3.85Q52.45-3.85 55.15-5.75L55.15-5.75ZM46.3-21.6L46.3-21.6Q43.8-21.6 42-19.78 40.2-17.95 39.75-14.5L39.75-14.5 52-14.5 52-15.4Q51.9-18.25 50.45-19.93 49-21.6 46.3-21.6ZM67.65-35.35L67.65 0 62.7 0 62.7-35.35 67.65-35.35ZM79.89-35.35L79.89 0 74.94 0 74.94-35.35 79.89-35.35ZM106.54-22.03Q109.69-18.35 109.69-12.65 109.69-6.95 106.47-3.25 103.24 0.45 97.59 0.45L97.59 0.45Q91.99 0.45 88.79-3.2 85.59-6.85 85.59-12.45L85.59-12.45Q85.59-18.15 88.89-21.93 92.19-25.7 97.59-25.7L97.59-25.7Q103.39-25.7 106.54-22.03ZM90.69-12.6L90.69-12.6Q90.69-8.85 92.54-6.28 94.39-3.7 97.59-3.7L97.59-3.7Q100.99-3.7 102.77-6.2 104.54-8.7 104.54-12.55L104.54-12.55Q104.54-16.5 102.84-19.03 101.14-21.55 97.54-21.55L97.54-21.55Q94.29-21.55 92.49-18.98 90.69-16.4 90.69-12.6ZM143.74-10.65L140.64 0 134.44 0 125.59-33.7 130.94-33.7 134.09-21.25 137.79-5.45Q140.04-13.85 142.19-21.25L142.19-21.25 145.64-33.2 150.19-33.2 153.74-21.2 158.29-5.35Q160.14-14.45 161.74-21.2L161.74-21.2 164.69-33.7 169.89-33.7 161.64 0 155.49 0 152.29-10.65 147.94-25.7Q146.79-20.95 143.74-10.65L143.74-10.65ZM194.38-22.03Q197.53-18.35 197.53-12.65 197.53-6.95 194.31-3.25 191.08 0.45 185.43 0.45L185.43 0.45Q179.83 0.45 176.63-3.2 173.43-6.85 173.43-12.45L173.43-12.45Q173.43-18.15 176.73-21.93 180.03-25.7 185.43-25.7L185.43-25.7Q191.23-25.7 194.38-22.03ZM178.53-12.6L178.53-12.6Q178.53-8.85 180.38-6.28 182.23-3.7 185.43-3.7L185.43-3.7Q188.83-3.7 190.61-6.2 192.38-8.7 192.38-12.55L192.38-12.55Q192.38-16.5 190.68-19.03 188.98-21.55 185.38-21.55L185.38-21.55Q182.13-21.55 180.33-18.98 178.53-16.4 178.53-12.6ZM207.93-13.5L207.93 0 203.03 0 203.03-25.35 207.93-25.35 207.93-20.9Q209.78-25.6 214.58-25.6L214.58-25.6Q215.28-25.6 216.13-25.45L216.13-25.45 216.13-20.65Q215.08-21.1 213.78-21.1L213.78-21.1Q211.23-21.1 209.58-18.85 207.93-16.6 207.93-13.5L207.93-13.5ZM225.13-35.35L225.13 0 220.18 0 220.18-35.35 225.13-35.35ZM235.88-12.45L235.88-12.45Q235.88-8.65 237.75-6.3 239.63-3.95 242.48-3.95L242.48-3.95Q245.38-3.95 247.38-6.15 249.38-8.35 249.38-12.85L249.38-12.85Q249.38-17.2 247.3-19.3 245.23-21.4 242.63-21.4L242.63-21.4Q239.68-21.4 237.78-19.07 235.88-16.75 235.88-12.45ZM254.33-35.35L254.33 0 249.38 0 249.38-3.85Q246.73 0.35 241.63 0.35L241.63 0.35Q236.63 0.35 233.73-3.43 230.83-7.2 230.83-12.55L230.83-12.55Q230.83-18.5 233.88-22.1 236.93-25.7 241.73-25.7L241.73-25.7Q246.68-25.7 249.38-21.5L249.38-21.5 249.38-35.35 254.33-35.35Z" opacity="1" transform="matrix(1,0,0,1,0,0)" fill="#aaaaaa" class="slogan-text-1" data-fill-palette-color="secondary" id="text-1"></path></svg></g></svg></g></svg></g></svg></g></svg></g></svg></g></svg></g><g><path d="M245.816 0c68.262 0 123.6 55.338 123.6 123.6 0 68.262-55.338 123.6-123.6 123.6-43.54 0-81.822-22.513-103.84-56.533l3.64 0c21.636 32.26 58.438 53.494 100.2 53.494 66.584 0 120.561-53.977 120.56-120.561 0-66.584-53.977-120.561-120.56-120.561-41.762 0-78.564 21.234-100.2 53.494l-3.64 0c22.018-34.02 60.3-56.533 103.84-56.533z" fill="#aaaaaa" stroke="transparent" data-fill-palette-color="tertiary"></path></g></svg></g><defs></defs></svg><rect width="395.52" height="247.2" fill="none" stroke="none" visibility="hidden"></rect></g></svg></g></svg>